<svg xmlns="http://www.w3.org/2000/svg" width="60" height="60" viewBox="0 0 60 60">
    <path fill="#FFF" fill-rule="nonzero" d="M60 30.4v-.2-.5c-.2-10.6-5.8-19.8-14.2-25-.3-.2-.6-.4-.9-.5-.2-.2-.3-.2-.4-.3-.3-.2-.6-.3-.8-.4-.1-.1-.3-.1-.4-.2-.3-.2-.6-.3-.8-.4-.2-.1-.3-.2-.5-.2-.3-.1-.5-.2-.8-.3-.2-.1-.4-.1-.6-.2-.2-.1-.5-.2-.7-.3-.2-.1-.4-.1-.6-.2-.2-.1-.5-.2-.7-.2-.2-.1-.4-.1-.7-.2-.2-.1-.5-.1-.7-.2-.2-.1-.5-.2-.7-.2-.2-.1-.5-.1-.7-.1-.3 0-.5-.1-.8-.1-.2 0-.4-.1-.7-.1-.3 0-.6-.1-.8-.1-.2 0-.4-.1-.6-.1-.3 0-.6-.1-1-.1h-4c-.3 0-.6 0-1 .1-.2 0-.4 0-.6.1-.3 0-.6.1-.8.1-.2 0-.4.1-.7.1-.3 0-.5.1-.8.1-.2 0-.5.1-.7.1 0 0-.3.1-.5.1-.2.1-.5.1-.7.2-.2.1-.4.1-.7.2-.2.1-.5.1-.7.2-.2.1-.4.1-.6.2-.2.1-.5.2-.7.3-.2.1-.4.1-.6.2-.3.1-.5.2-.8.3-.2.1-.3.1-.5.2-.2.2-.5.3-.8.5-.1.1-.3.1-.4.2-.3.1-.6.3-.8.4-.1.1-.2.1-.3.2-.3.2-.6.4-.9.5C5.8 9.8.2 19.1 0 29.7v1c.2 10.6 5.8 19.8 14.2 25 .3.2.6.4.9.5.1.1.2.1.3.2.3.2.6.3.8.4.1.1.3.1.4.2.3.1.5.3.8.4.2.1.3.2.5.2.3.1.5.2.8.3.2.1.4.1.6.2.2.1.5.2.7.3.2.1.4.1.6.2.2.1.5.2.7.2.2.1.4.1.7.2.2.1.5.1.7.2.2.1.5.1.7.2.2.1.5.1.7.1.3 0 .5.1.8.1.2 0 .4.1.7.1.3 0 .6.1.8.1.2 0 .4.1.6.1.3 0 .6.1 1 .1h4c.3 0 .6 0 1-.1.2 0 .4 0 .6-.1.3 0 .6-.1.8-.1.2 0 .4-.1.7-.1.3 0 .5-.1.8-.1.2 0 .5-.1.7-.1.2-.1.5-.1.7-.2.2-.1.5-.1.7-.2.2-.1.4-.1.7-.2.2-.1.5-.1.7-.2.2-.1.4-.1.6-.2.2-.1.5-.2.7-.3.2-.1.4-.1.6-.2.3-.1.5-.2.8-.3.2-.1.3-.1.5-.2.3-.1.5-.2.8-.4.1-.1.3-.1.4-.2.3-.1.6-.3.8-.4.1-.1.2-.1.3-.2.3-.2.6-.4.9-.5 8.4-5.2 14.1-14.5 14.2-25v-.3zm-1-.7H40c.1-8.3 3.7-15.8 9.2-21.2 5.9 5.2 9.6 12.8 9.8 21.2zm-10.8 23c-.4.4-.9.7-1.3 1-.2.1-.4.3-.6.4-.5.4-1.1.7-1.6 1-.2.1-.4.2-.5.3l-1.8.9c-.1.1-.3.1-.4.2-.7.3-1.3.6-2 .8 0 0-.1 0-.2.1-.7.3-1.4.5-2.2.7h-.2c-.7.2-1.5.4-2.2.5-.1 0-.2 0-.3.1-.7.1-1.5.2-2.2.3h-.3c-.6 0-1.2.1-1.8.1V30.7H39c.1 8.2 3.6 16.1 9.5 21.8-.1.1-.2.1-.3.2zM27.3 59c-.7-.1-1.5-.2-2.2-.3-.1 0-.2 0-.3-.1-.7-.1-1.5-.3-2.2-.5h-.2c-.7-.2-1.4-.4-2.2-.7 0 0-.1 0-.1-.1-.7-.2-1.3-.5-2-.8-.1-.1-.3-.1-.4-.2l-1.8-.9c-.2-.1-.4-.2-.5-.3-.6-.3-1.1-.7-1.6-1-.2-.1-.4-.3-.6-.4-.5-.3-.9-.7-1.3-1-.1-.1-.2-.2-.3-.2 5.9-5.7 9.3-13.6 9.5-21.8h8.5v28.5c-.6 0-1.2 0-1.8-.1-.2 0-.3 0-.5-.1zM11.8 7.6c.4-.4.9-.7 1.4-1 .2-.1.4-.3.6-.4.5-.4 1.1-.7 1.6-1 .2-.1.4-.2.5-.3l1.8-.9c.1-.1.3-.1.4-.2.7-.3 1.3-.6 2-.8 0 0 .1 0 .1-.1.7-.3 1.4-.5 2.2-.7h.2c.7-.2 1.5-.4 2.2-.5.1 0 .2 0 .3-.1.7-.1 1.5-.2 2.2-.3h.3c.6 0 1.2-.1 1.8-.1v28.5H21c-.1-8.2-3.6-16.1-9.5-21.8l.3-.3zm20.9-6.3c.7.1 1.5.2 2.2.3.1 0 .2 0 .3.1.7.1 1.5.3 2.2.5h.2c.7.2 1.4.4 2.2.7 0 0 .1 0 .2.1.7.2 1.3.5 2 .8.1.1.3.1.4.2l1.8.9c.2.1.4.2.5.3.6.3 1.1.7 1.6 1 .2.1.4.3.6.4.5.3.9.7 1.4 1 .1.1.2.2.3.2-5.9 5.7-9.3 13.6-9.5 21.8h-8.5V1.2c.6 0 1.2 0 1.8.1h.3zm-22 7.2c5.6 5.4 9.1 12.8 9.2 21.2H1c.2-8.4 3.9-16 9.7-21.2zM1 30.7h19c-.1 8.3-3.7 15.8-9.2 21.2C4.9 46.6 1.2 39.1 1 30.7zm48.3 21.1C43.7 46.5 40.2 39 40 30.7h19c-.2 8.4-3.9 15.9-9.7 21.1z"/>
</svg>
