<svg xmlns="http://www.w3.org/2000/svg" width="52" height="57" viewBox="0 0 52 57">
    <path fill-rule="nonzero" d="M26.5 0c13.8.3 25 11.7 25 25.5V47c0 4.4-3.6 8-8 8H33v-1h10.5c3.9 0 7-3.1 7-7v-3.4c-1.1.2-2 1.2-2 2.4 0 3-2.5 5.5-5.5 5.5S37.5 49 37.5 46V30c0-3 2.5-5.5 5.5-5.5s5.5 2.5 5.5 5.5c0 1.2.9 2.2 2 2.4v-6.9c0-13.3-10.8-24.3-24-24.5C20 .9 13.8 3.4 9.1 7.9 4.3 12.7 1.5 19.3 1.5 26v6.4c1.1-.2 2-1.2 2-2.4 0-3 2.5-5.5 5.5-5.5s5.5 2.5 5.5 5.5v16c0 3-2.5 5.5-5.5 5.5S3.5 49 3.5 46c0-1.4-1.1-2.5-2.5-2.5H.5V26.1c0-7 2.9-13.9 7.9-18.8C13.3 2.5 19.7-.1 26.5 0zM9 25.5c-2.5 0-4.5 2-4.5 4.5v16c0 2.5 2 4.5 4.5 4.5s4.5-2 4.5-4.5V30c0-2.5-2-4.5-4.5-4.5zm-5.5 7c-.6.5-1.2.9-2 1.1v9c.8.1 1.5.5 2 1V32.5zm39.5 18c2.5 0 4.5-2 4.5-4.5v-.5h-.1v-15h.1V30c0-2.5-2-4.5-4.5-4.5s-4.5 2-4.5 4.5v16c0 2.5 2 4.5 4.5 4.5zm5.5-6.9c.5-.6 1.2-.9 2-1v-9.1c-.8-.1-1.5-.5-2-1.1v11.2zm-18 8.4c1.4 0 2.5 1.1 2.5 2.5S31.9 57 30.5 57h-6c-1.4 0-2.5-1.1-2.5-2.5s1.1-2.5 2.5-2.5h6zm0 4c.8 0 1.5-.7 1.5-1.5s-.7-1.5-1.5-1.5h-6c-.8 0-1.5.7-1.5 1.5s.7 1.5 1.5 1.5h6z"/>
</svg>
