<svg xmlns="http://www.w3.org/2000/svg" width="60" height="61" viewBox="0 0 60 61">
    <path fill-rule="nonzero" d="M20.6 26.9l9.4-6.8 9.4 6.8L35.8 38H24.2l-3.6-11.1zM35.1 37l3.1-9.7-8.2-6-8.2 6 3.1 9.7h10.2zM60 30.7c-.2 6.4-2.3 12.2-5.8 17.1-.4.6-.9 1.2-1.4 1.8l-.1.1c-1 1.2-2.1 2.2-3.2 3.2 0 .1-.1.1-.1.1-1.7 1.5-3.6 2.7-5.7 3.8-1.4.7-2.8 1.3-4.3 1.8-2.9 1-6.1 1.5-9.4 1.5-3.3 0-6.5-.6-9.5-1.6-3.8-1.3-7.2-3.3-10.1-5.8-1.8-1.5-3.3-3.2-4.7-5.1C2.2 42.8.2 37.1 0 30.8V30c0-.7 0-1.4.1-2.1v-.5c0-.7.1-1.3.2-2s.3-1.4.4-2c0-.1.1-.3.1-.4.2-.7.4-1.3.7-2 .2-.7.5-1.3.7-1.9 0-.2.1-.3.1-.4.6-1.2 1.1-2.4 1.8-3.6.1-.1.1-.2.2-.3C8 8.5 13.9 3.7 21 1.4l2.1-.6h.2c.7-.1 1.4-.3 2.1-.4.7-.2 1.4-.2 2.1-.3h.4C28.6 0 29.3 0 30 0c.7 0 1.4 0 2.3.2h.4l2.1.3c.7.1 1.4.2 2.1.4h.2l2.1.6c6.4 2.1 11.9 6.2 15.6 11.7.4.5.8 1.1 1.1 1.7.1.1.1.2.2.3.7 1.1 1.3 2.4 1.8 3.6 0 .2.1.3.1.4.3.6.5 1.3.7 1.9.2.6.3 1.2.5 1.9 0 .1.1.3.1.4.2.7.3 1.3.4 2 .1.6.1 1.3.2 2v.5c.1.7.1 1.4.1 2.1v.7zm-5.2-15.8c-.1-.1-.2-.2-.2-.3l-2.7 9.3 7.1 4.9v-.1c0-.6 0-1.1-.1-1.7-.1-.1-.1-.3-.1-.4-.1-.5-.1-.9-.2-1.3 0-.3-.1-.5-.1-.7-.1-.3-.1-.7-.2-1-.1-.2-.1-.5-.2-.7-.1-.3-.2-.7-.3-1-.1-.4-.3-.8-.4-1.2-.1-.3-.2-.5-.3-.8l-.3-.9-.3-.6c-.1-.3-.3-.6-.4-.9 0-.2-.1-.3-.2-.5-.3-.7-.6-1.3-1-1.9 0 0-.1-.1-.1-.2zM22.4 2h-.1L30 7.7 37.8 2h-.2c-1.2-.3-2.3-.5-3.5-.7-.2-.1-.3-.1-.5-.1-.4 0-.8-.1-1.3-.1h-.5C31.2 1 30.6 1 30 1c-.6 0-1.2 0-1.8.1h-.5c-.4 0-.9 0-1.3.1-.2.1-.3.1-.5.1-1.2.2-2.4.4-3.5.7zM1 28.7c0 .1 0 .1.1.1l7.3-5-2.8-9.4c-.1.1-.2.3-.3.4-.1.2-.2.3-.3.5-.3.6-.6 1.1-.9 1.7-.1.2-.2.3-.2.4-.1.3-.3.6-.4.9-.1.3-.2.5-.3.7-.2.3-.3.6-.5.8l-.3.9c-.1.4-.2.7-.3 1.1-.1.4-.2.7-.3 1.1-.1.2-.1.5-.2.7-.1.4-.1.7-.2 1.1 0 .2-.1.4-.1.6-.1.4-.1.9-.2 1.4v.3c0 .5-.1 1.1-.1 1.7zm17.4 27.9c.6.2 1.1.4 1.5.4l-3.3-9.4-9.3.3c.1 0 .1.1.2.2.2.3.4.5.6.7.4.5.8.9 1.2 1.3l.3.3c.3.2.6.5.9.8l.1.1c1 .9 2 1.8 3.1 2.5.1.1.2.1.3.2.6.5 1.3.8 1.9 1.2.1.1.2.1.3.2.2.2.5.3.7.4.3.2.6.4.9.5l.6.3zm34-8.2c.1-.1.1-.2.3-.2l-9.5-.3-3.4 9.4h.1c.5-.2 1.1-.5 1.6-.7l.6-.3c.3-.2.6-.3.9-.5.3-.1.5-.3.8-.4.2-.1.3-.2.5-.3.6-.3 1.2-.7 1.8-1.1.1 0 .1-.1.2-.1 1.5-1 2.9-2.1 4.2-3.4l.2-.2c.5-.5.9-1 1.4-1.5.1-.1.2-.3.3-.4zm1-1.3C56.9 42.3 59 36.4 59 30l-8.4-5.7 3.2-10.8C50.3 8.3 45 4.4 38.9 2.4L30 8.9l-8.9-6.5c-6 2-11.2 5.9-14.8 11l3.2 10.9L1 30.1c0 6.4 2.1 12.3 5.6 17l10.9-.2 3.8 10.8C24 58.5 27 59 30 59c3 0 5.8-.5 8.5-1.3l3.9-10.9 11 .3z"/>
</svg>
