<svg xmlns="http://www.w3.org/2000/svg" width="176" height="32" viewBox="0 0 176 32">
    <path fill-rule="nonzero" d="M65.87 15.61a.391.391 0 1 0 0 .78h5.488c4.331 0 7.842 3.495 7.842 7.805v5.464A2.347 2.347 0 0 1 76.848 32H2.352A2.347 2.347 0 0 1 0 29.659V1.56C0 .699.702 0 1.568 0h75.28C78.147 0 79.2 1.048 79.2 2.341v5.464c0 4.31-3.51 7.805-7.842 7.805H65.87zm-9.058 0h-8.978c-4.331 0-7.842-3.495-7.842-7.805V5.902a.391.391 0 0 0-.784 0v1.903c0 4.31-3.51 7.805-7.842 7.805h-8.978a.391.391 0 1 0 0 .78h8.978c4.331 0 7.842 3.495 7.842 7.805v1.903a.391.391 0 0 0 .784 0v-1.903c0-4.31 3.51-7.805 7.842-7.805h8.978a.391.391 0 1 0 0-.78zM98.616 5.2h2.544c.448 0 .816-.107 1.104-.32.288-.213.432-.56.432-1.04 0-.267-.048-.485-.144-.656a1.065 1.065 0 0 0-.384-.4 1.619 1.619 0 0 0-.552-.2 3.662 3.662 0 0 0-.648-.056h-2.352V5.2zM96.104.576h5.376c.544 0 1.04.048 1.488.144.448.096.832.253 1.152.472.32.219.568.51.744.872.176.363.264.81.264 1.344 0 .576-.13 1.056-.392 1.44-.261.384-.648.699-1.16.944.704.203 1.23.557 1.576 1.064.347.507.52 1.117.52 1.832 0 .576-.112 1.075-.336 1.496a2.915 2.915 0 0 1-.904 1.032 4 4 0 0 1-1.296.592 5.841 5.841 0 0 1-1.496.192h-5.536V.576zm2.512 9.472h2.688c.245 0 .48-.024.704-.072.224-.048.421-.128.592-.24.17-.112.307-.264.408-.456.101-.192.152-.437.152-.736 0-.587-.165-1.005-.496-1.256-.33-.25-.768-.376-1.312-.376h-2.736v3.136zm9.095-9.472h2.512V12h-2.512V.576zm7.59 2.112h-3.423V.576h9.36v2.112h-3.424V12h-2.512V2.688zm-17.485 23.52c0 .384.07.71.208.976.139.267.323.483.552.648.23.165.499.288.808.368.31.08.63.12.96.12.224 0 .464-.019.72-.056.256-.037.496-.11.72-.216a1.57 1.57 0 0 0 .56-.44c.15-.187.224-.424.224-.712 0-.31-.099-.56-.296-.752a2.348 2.348 0 0 0-.776-.48 7.745 7.745 0 0 0-1.088-.336 30.06 30.06 0 0 1-1.232-.32 10.94 10.94 0 0 1-1.248-.392 4.288 4.288 0 0 1-1.088-.6 2.826 2.826 0 0 1-.776-.92c-.197-.368-.296-.813-.296-1.336 0-.587.125-1.096.376-1.528.25-.432.579-.792.984-1.08a4.288 4.288 0 0 1 1.376-.64 5.853 5.853 0 0 1 1.536-.208c.597 0 1.17.067 1.72.2a4.29 4.29 0 0 1 1.464.648c.427.299.765.68 1.016 1.144.25.464.376 1.027.376 1.688h-2.432c-.021-.341-.093-.624-.216-.848a1.413 1.413 0 0 0-.488-.528 2.063 2.063 0 0 0-.696-.272 4.285 4.285 0 0 0-.856-.08c-.203 0-.405.021-.608.064a1.626 1.626 0 0 0-.552.224 1.39 1.39 0 0 0-.408.4c-.107.16-.16.363-.16.608 0 .224.043.405.128.544s.253.267.504.384c.25.117.597.235 1.04.352.443.117 1.021.267 1.736.448.213.043.51.12.888.232.379.112.755.29 1.128.536.373.245.696.573.968.984.272.41.408.936.408 1.576a3.49 3.49 0 0 1-.304 1.456 3.163 3.163 0 0 1-.904 1.16c-.4.325-.896.579-1.488.76-.592.181-1.277.272-2.056.272-.63 0-1.24-.077-1.832-.232a4.608 4.608 0 0 1-1.568-.728 3.596 3.596 0 0 1-1.08-1.264c-.267-.512-.395-1.12-.384-1.824h2.432zm11.543-5.52h-3.424v-2.112h9.36v2.112h-3.424V30h-2.512v-9.312zm10.103 3.056h2.752c.576 0 1.008-.128 1.296-.384.288-.256.432-.672.432-1.248 0-.555-.144-.957-.432-1.208-.288-.25-.72-.376-1.296-.376h-2.752v3.216zm-2.512-5.168h6.16c.512 0 .973.083 1.384.248.41.165.762.392 1.056.68.293.288.517.621.672 1 .154.379.232.787.232 1.224 0 .672-.142 1.253-.424 1.744-.283.49-.744.864-1.384 1.12v.032c.309.085.565.216.768.392.202.176.368.384.496.624s.221.504.28.792c.058.288.098.576.12.864.01.181.021.395.032.64.01.245.029.496.056.752.026.256.069.499.128.728.058.23.146.424.264.584h-2.512c-.139-.363-.224-.795-.256-1.296s-.08-.981-.144-1.44c-.086-.597-.267-1.035-.544-1.312-.278-.277-.73-.416-1.36-.416h-2.512V30h-2.512V18.576zm11.895 0h8.544v2.112h-6.032v2.448h5.536v1.952h-5.536v2.8h6.16V30h-8.672V18.576zm13.59 7.008h2.96l-1.44-4.192h-.032l-1.488 4.192zm.24-7.008h2.576L149.523 30h-2.608l-.864-2.544h-4.272L140.883 30h-2.528l4.32-11.424zm8.183 0h3.536l2.672 7.856h.032l2.528-7.856h3.536V30h-2.352v-8.096h-.032l-2.8 8.096h-1.936l-2.8-8.016h-.032V30h-2.352V18.576zm17.815 6.976l-4.192-6.976h2.816l2.672 4.512 2.656-4.512h2.8l-4.24 7.04V30h-2.512v-4.448z"/>
</svg>
